<svg aria-hidden="true" style="position: absolute; width: 0; height: 0; overflow: hidden;" version="1.1" xmlns="http://www.w3.org/2000/svg" xmlns:xlink="http://www.w3.org/1999/xlink">
<defs>
<symbol id="smile" viewBox="0 0 32 32">
<path d="M16 0c-8.822 0-16 7.178-16 16s7.178 16 16 16 16-7.178 16-16c0-8.822-7.178-16-16-16zM16 30.815c-8.169 0-14.815-6.646-14.815-14.815s6.646-14.815 14.815-14.815 14.815 6.646 14.815 14.815c0 8.169-6.646 14.815-14.815 14.815z"></path>
<path d="M24.889 15.405v1.185h1.178c-0.158 5.185-4.478 9.483-9.77 9.483-5.391 0-9.778-4.386-9.778-9.777 0-0.328-0.265-0.592-0.593-0.592s-0.593 0.265-0.593 0.593c0 6.045 4.918 10.962 10.963 10.962 5.946 0 10.797-4.742 10.955-10.668h1.193v-1.185h-3.556z"></path>
<path d="M11.259 10.667c-0.328 0-0.593 0.265-0.593 0.593v3.556c0 0.328 0.265 0.593 0.593 0.593s0.593-0.265 0.593-0.593v-3.556c0-0.328-0.265-0.593-0.593-0.593z"></path>
<path d="M16.593 10.667c-0.328 0-0.593 0.265-0.593 0.593v3.556c0 0.328 0.265 0.593 0.593 0.593s0.593-0.265 0.593-0.593v-3.556c0-0.328-0.265-0.593-0.593-0.593z"></path>
</symbol>
</defs>
</svg>
